<svg height="480pt" viewBox="0 -8 480 480" width="480pt" xmlns="http://www.w3.org/2000/svg"><path d="m280 160h-8c-15.320312.460938-30 6.261719-41.496094 16.398438l-6.113281 6.097656c-3.363281 3.480468-6.191406 7.441406-8.390625 11.75-2.199219-4.3125-5.03125-8.273438-8.398438-11.75l-6.105468-6.097656c-11.496094-10.136719-26.175782-15.9375-41.496094-16.398438h-8c-4.417969 0-8 3.582031-8 8v8c.464844 15.324219 6.265625 30.003906 16.398438 41.503906l6.105468 6.097656c11.496094 10.136719 26.175782 15.9375 41.496094 16.398438h16c15.320312-.460938 30-6.261719 41.496094-16.398438l6.113281-6.097656c10.128906-11.503906 15.925781-26.183594 16.390625-41.503906v-8c0-4.417969-3.582031-8-8-8zm0 0" fill="#c8d952"/><path d="m253.65625 194.34375c-3.125-3.121094-8.1875-3.121094-11.3125 0l-26.34375 26.34375-26.34375-26.34375c-3.140625-3.03125-8.128906-2.988281-11.214844.097656-3.085937 3.085938-3.128906 8.074219-.097656 11.214844l32 32c3.125 3.121094 8.1875 3.121094 11.3125 0l32-32c3.121094-3.125 3.121094-8.1875 0-11.3125zm0 0" fill="#238892"/><path d="m88 232h304c44.183594 0 80 35.816406 80 80v16c0 44.183594-35.816406 80-80 80h-304c-44.183594 0-80-35.816406-80-80v-16c0-44.183594 35.816406-80 80-80zm0 0" fill="#cfdfe8"/><path d="m80 360h16c13.253906 0 24 10.746094 24 24s-10.746094 24-24 24h-16c-13.253906 0-24-10.746094-24-24s10.746094-24 24-24zm0 0" fill="#d3843d"/><path d="m112 408h32c13.253906 0 24 10.746094 24 24s-10.746094 24-24 24h-32c-13.253906 0-24-10.746094-24-24s10.746094-24 24-24zm0 0" fill="#d3843d"/><path d="m32 408h32c13.253906 0 24 10.746094 24 24s-10.746094 24-24 24h-32c-13.253906 0-24-10.746094-24-24s10.746094-24 24-24zm0 0" fill="#d3843d"/><g fill="#7d8d9c"><path d="m352 304c-7.867188-.265625-15.117188-4.316406-19.472656-10.871094-3.398438-4.089844-4.597656-5.121094-7.199219-5.121094-2.695313 0-4 1.25-7.199219 5.128907-4.171875 6.757812-11.546875 10.871093-19.488281 10.871093s-15.316406-4.113281-19.488281-10.871093c-3.199219-3.871094-4.496094-5.121094-7.199219-5.121094-4.417969 0-8-3.582031-8-8s3.582031-8 8-8c7.871094.261719 15.128906 4.3125 19.488281 10.871094 3.199219 3.875 4.496094 5.121093 7.199219 5.121093s4-1.246093 7.199219-5.121093c4.167968-6.757813 11.539062-10.871094 19.480468-10.871094 7.9375 0 15.3125 4.113281 19.480469 10.871094 3.398438 4.089843 4.597657 5.121093 7.199219 5.121093 4.417969 0 8 3.582032 8 8 0 4.417969-3.582031 8-8 8zm0 0"/><path d="m168 304c-7.867188-.265625-15.121094-4.320312-19.472656-10.878906-3.398438-4.089844-4.597656-5.121094-7.199219-5.121094-2.695313 0-4 1.246094-7.199219 5.128906-4.351562 6.546875-11.59375 10.59375-19.449218 10.871094-7.867188-.269531-15.121094-4.316406-19.480469-10.871094-3.199219-3.882812-4.496094-5.128906-7.199219-5.128906-4.417969 0-8-3.582031-8-8s3.582031-8 8-8c7.871094.265625 15.128906 4.316406 19.488281 10.871094 3.199219 3.882812 4.496094 5.128906 7.199219 5.128906s4-1.246094 7.199219-5.128906c4.359375-6.550782 11.609375-10.601563 19.472656-10.871094 7.855469.277344 15.097656 4.328125 19.441406 10.878906 3.398438 4.089844 4.597657 5.121094 7.199219 5.121094 4.417969 0 8 3.582031 8 8s-3.582031 8-8 8zm0 0"/><path d="m408 368c-7.867188-.265625-15.121094-4.320312-19.472656-10.878906-3.398438-4.089844-4.597656-5.121094-7.199219-5.121094-2.695313 0-4 1.246094-7.199219 5.128906-4.171875 6.757813-11.546875 10.871094-19.488281 10.871094s-15.316406-4.113281-19.488281-10.871094c-3.199219-3.882812-4.496094-5.128906-7.199219-5.128906-4.417969 0-8-3.582031-8-8s3.582031-8 8-8c7.867187.265625 15.125 4.316406 19.488281 10.871094 3.199219 3.882812 4.496094 5.128906 7.199219 5.128906s4-1.246094 7.199219-5.128906c4.164062-6.761719 11.539062-10.878906 19.480468-10.878906 7.941407 0 15.3125 4.117187 19.480469 10.878906 3.398438 4.089844 4.597657 5.121094 7.199219 5.121094 4.417969 0 8 3.582031 8 8 0 4.417968-3.582031 8-8 8zm0 0"/><path d="m224 368c-7.867188-.265625-15.117188-4.316406-19.472656-10.871094-3.398438-4.089844-4.597656-5.121094-7.199219-5.121094-2.695313 0-4 1.25-7.199219 5.128907-4.171875 6.757812-11.546875 10.871093-19.488281 10.871093s-15.316406-4.113281-19.488281-10.871093c-3.199219-3.871094-4.496094-5.121094-7.199219-5.121094-4.417969 0-8-3.582031-8-8s3.582031-8 8-8c7.871094.261719 15.128906 4.3125 19.488281 10.871094 3.199219 3.875 4.496094 5.121093 7.199219 5.121093s4-1.246093 7.199219-5.121093c4.167968-6.757813 11.539062-10.871094 19.480468-10.871094 7.9375 0 15.3125 4.113281 19.480469 10.871094 3.398438 4.089843 4.597657 5.121093 7.199219 5.121093 4.417969 0 8 3.582032 8 8 0 4.417969-3.582031 8-8 8zm0 0"/></g><path d="m96 192c-4.417969 0-8-3.582031-8-8-.09375-6.207031 1.699219-12.296875 5.144531-17.464844 3.796875-5.546875 3.796875-12.851562 0-18.398437-6.855469-10.625-6.855469-24.273438 0-34.898438 1.960938-2.671875 2.96875-5.925781 2.855469-9.238281 0-4.417969 3.582031-8 8-8s8 3.582031 8 8c.09375 6.199219-1.699219 12.285156-5.144531 17.441406-3.800781 5.542969-3.800781 12.855469 0 18.398438 6.855469 10.632812 6.855469 24.289062 0 34.921875-1.957031 2.671875-2.964844 5.925781-2.855469 9.238281 0 4.417969-3.582031 8-8 8zm0 0" fill="#fdbd40"/><path d="m32 176c-4.417969 0-8-3.582031-8-8-.09375-6.207031 1.699219-12.296875 5.144531-17.464844 3.796875-5.546875 3.796875-12.851562 0-18.398437-6.855469-10.625-6.855469-24.273438 0-34.898438 1.960938-2.671875 2.96875-5.925781 2.855469-9.238281 0-4.417969 3.582031-8 8-8s8 3.582031 8 8c.09375 6.199219-1.699219 12.285156-5.144531 17.441406-3.800781 5.542969-3.800781 12.855469 0 18.398438 6.855469 10.632812 6.855469 24.289062 0 34.921875-1.957031 2.671875-2.964844 5.925781-2.855469 9.238281 0 4.417969-3.582031 8-8 8zm0 0" fill="#fdbd40"/><path d="m312 112c-4.417969 0-8-3.582031-8-8-.09375-6.207031 1.699219-12.296875 5.144531-17.464844 3.796875-5.546875 3.796875-12.851562 0-18.398437-3.453125-5.175781-5.246093-11.277344-5.144531-17.496094-.09375-6.199219 1.699219-12.285156 5.144531-17.441406 1.953125-2.660157 2.957031-5.898438 2.855469-9.199219 0-4.417969 3.582031-8 8-8s8 3.582031 8 8c.09375 6.199219-1.699219 12.285156-5.144531 17.441406-1.953125 2.660156-2.957031 5.898438-2.855469 9.199219-.101562 3.304687.90625 6.546875 2.855469 9.214844 6.855469 10.632812 6.855469 24.289062 0 34.921875-1.953125 2.667968-2.960938 5.914062-2.855469 9.222656 0 4.417969-3.582031 8-8 8zm0 0" fill="#fdbd40"/><path d="m248 96c-4.417969 0-8-3.582031-8-8-.09375-6.207031 1.699219-12.296875 5.144531-17.464844 1.949219-2.667968 2.957031-5.910156 2.855469-9.214844.101562-3.308593-.90625-6.554687-2.863281-9.222656-3.441407-5.164062-5.230469-11.253906-5.136719-17.457031-.09375-6.199219 1.699219-12.285156 5.144531-17.441406 1.953125-2.660157 2.957031-5.898438 2.855469-9.199219 0-4.417969 3.582031-8 8-8s8 3.582031 8 8c.09375 6.199219-1.699219 12.285156-5.144531 17.441406-1.953125 2.660156-2.957031 5.898438-2.855469 9.199219-.101562 3.304687.90625 6.546875 2.855469 9.214844 3.445312 5.167969 5.238281 11.257812 5.144531 17.464843.09375 6.203126-1.695312 12.292969-5.136719 17.457032-1.957031 2.667968-2.964843 5.914062-2.863281 9.222656 0 4.417969-3.582031 8-8 8zm0 0" fill="#fdbd40"/><path d="m384 136h16c13.253906 0 24 10.746094 24 24s-10.746094 24-24 24h-16c-13.253906 0-24-10.746094-24-24s10.746094-24 24-24zm0 0" fill="#d3843d"/><path d="m416 184h32c13.253906 0 24 10.746094 24 24s-10.746094 24-24 24h-32c-13.253906 0-24-10.746094-24-24s10.746094-24 24-24zm0 0" fill="#d3843d"/><path d="m336 184h32c13.253906 0 24 10.746094 24 24s-10.746094 24-24 24h-32c-13.253906 0-24-10.746094-24-24s10.746094-24 24-24zm0 0" fill="#d3843d"/><path d="m325.359375 288c2.570313 0 3.769531 1.03125 7.199219 5.121094 4.347656 6.546875 11.585937 10.601562 19.441406 10.878906 4.417969 0 8-3.582031 8-8s-3.582031-8-8-8c-2.566406 0-3.769531-1.03125-7.199219-5.121094-4.167969-6.757812-11.542969-10.871094-19.480469-10.871094-7.941406 0-15.3125 4.113282-19.480468 10.871094-3.199219 3.875-4.496094 5.121094-7.199219 5.121094s-4-1.246094-7.199219-5.121094c-4.347656-6.546875-11.585937-10.601562-19.441406-10.878906-4.417969 0-8 3.582031-8 8s3.582031 8 8 8c2.695312 0 4 1.246094 7.199219 5.121094 4.171875 6.753906 11.546875 10.871094 19.488281 10.871094s15.316406-4.117188 19.488281-10.871094c3.214844-3.863282 4.488281-5.121094 7.183594-5.121094zm0 0"/><path d="m141.359375 288c2.570313 0 3.769531 1.03125 7.199219 5.121094 4.34375 6.550781 11.585937 10.601562 19.441406 10.878906 4.417969 0 8-3.582031 8-8s-3.582031-8-8-8c-2.566406 0-3.769531-1.03125-7.199219-5.121094-4.34375-6.550781-11.585937-10.601562-19.441406-10.878906-7.871094.265625-15.128906 4.316406-19.488281 10.871094-3.199219 3.882812-4.496094 5.128906-7.199219 5.128906s-4-1.246094-7.199219-5.128906c-4.359375-6.550782-11.609375-10.601563-19.472656-10.871094-4.417969 0-8 3.582031-8 8s3.582031 8 8 8c2.695312 0 4 1.246094 7.199219 5.128906 4.359375 6.554688 11.613281 10.601563 19.480469 10.871094 7.871093-.265625 15.128906-4.316406 19.488281-10.871094 3.222656-3.882812 4.496093-5.128906 7.191406-5.128906zm0 0"/><path d="m361.871094 346.871094c-3.199219 3.882812-4.496094 5.128906-7.199219 5.128906s-4-1.246094-7.199219-5.128906c-4.359375-6.550782-11.609375-10.601563-19.472656-10.871094-4.417969 0-8 3.582031-8 8s3.582031 8 8 8c2.695312 0 4 1.246094 7.199219 5.128906 4.171875 6.757813 11.546875 10.871094 19.488281 10.871094s15.316406-4.113281 19.488281-10.871094c3.199219-3.882812 4.496094-5.128906 7.199219-5.128906 2.570312 0 3.769531 1.03125 7.199219 5.121094 4.34375 6.546875 11.574219 10.597656 19.425781 10.878906 4.417969 0 8-3.582031 8-8s-3.582031-8-8-8c-2.566406 0-3.769531-1.03125-7.199219-5.121094-4.167969-6.761718-11.539062-10.878906-19.480469-10.878906-7.941406 0-15.316406 4.117188-19.480468 10.878906zm0 0"/><path d="m224 352c-2.566406 0-3.769531-1.03125-7.199219-5.121094-4.167969-6.757812-11.542969-10.871094-19.480469-10.871094-7.941406 0-15.3125 4.113282-19.480468 10.871094-3.199219 3.875-4.496094 5.121094-7.199219 5.121094s-4-1.246094-7.199219-5.121094c-4.347656-6.546875-11.585937-10.601562-19.441406-10.878906-4.417969 0-8 3.582031-8 8s3.582031 8 8 8c2.695312 0 4 1.246094 7.199219 5.121094 4.171875 6.753906 11.546875 10.871094 19.488281 10.871094s15.316406-4.117188 19.488281-10.871094c3.199219-3.882813 4.496094-5.128906 7.199219-5.128906 2.570312 0 3.769531 1.03125 7.199219 5.121093 4.34375 6.546875 11.574219 10.601563 19.425781 10.886719 4.417969 0 8-3.582031 8-8s-3.582031-8-8-8zm0 0"/><path d="m112 104c0-4.417969-3.582031-8-8-8s-8 3.582031-8 8c.101562 3.300781-.902344 6.539062-2.855469 9.199219-6.855469 10.625-6.855469 24.273437 0 34.898437 3.796875 5.542969 3.796875 12.851563 0 18.398438-3.453125 5.175781-5.246093 11.28125-5.144531 17.503906 0 4.417969 3.582031 8 8 8s8-3.582031 8-8c-.101562-3.308594.90625-6.554688 2.863281-9.222656 6.855469-10.632813 6.855469-24.289063 0-34.921875-3.800781-5.542969-3.800781-12.855469 0-18.398438 3.445313-5.164062 5.238281-11.25 5.136719-17.457031zm0 0"/><path d="m24 168c0 4.417969 3.582031 8 8 8s8-3.582031 8-8c-.101562-3.308594.90625-6.554688 2.863281-9.222656 6.855469-10.632813 6.855469-24.289063 0-34.921875-3.800781-5.542969-3.800781-12.855469 0-18.398438 3.445313-5.164062 5.238281-11.25 5.136719-17.457031 0-4.417969-3.582031-8-8-8s-8 3.582031-8 8c.101562 3.300781-.902344 6.539062-2.855469 9.199219-6.855469 10.625-6.855469 24.273437 0 34.898437 3.796875 5.542969 3.796875 12.851563 0 18.398438-3.453125 5.175781-5.246093 11.28125-5.144531 17.503906zm0 0"/><path d="m328 24c0-4.417969-3.582031-8-8-8s-8 3.582031-8 8c.101562 3.300781-.902344 6.539062-2.855469 9.199219-3.445312 5.15625-5.238281 11.242187-5.144531 17.441406-.09375 6.203125 1.695312 12.292969 5.136719 17.457031 3.796875 5.542969 3.796875 12.851563 0 18.398438-3.449219 5.179687-5.242188 11.285156-5.136719 17.503906 0 4.417969 3.582031 8 8 8s8-3.582031 8-8c-.101562-3.308594.90625-6.554688 2.863281-9.222656 6.855469-10.632813 6.855469-24.289063 0-34.921875-1.953125-2.667969-2.960937-5.910157-2.863281-9.214844-.101562-3.300781.902344-6.539063 2.855469-9.199219 3.445312-5.15625 5.238281-11.242187 5.144531-17.441406zm0 0"/><path d="m264 8c0-4.417969-3.582031-8-8-8s-8 3.582031-8 8c.101562 3.300781-.902344 6.539062-2.855469 9.199219-3.445312 5.15625-5.238281 11.242187-5.144531 17.441406-.09375 6.203125 1.695312 12.292969 5.136719 17.457031 1.957031 2.667969 2.964843 5.914063 2.863281 9.222656.101562 3.304688-.90625 6.546876-2.855469 9.214844-3.445312 5.167969-5.238281 11.257813-5.144531 17.464844 0 4.417969 3.582031 8 8 8s8-3.582031 8-8c-.101562-3.308594.90625-6.554688 2.863281-9.222656 3.441407-5.164063 5.230469-11.253906 5.136719-17.457032.09375-6.207031-1.699219-12.296874-5.144531-17.464843-1.949219-2.667969-2.957031-5.910157-2.855469-9.214844-.101562-3.300781.902344-6.539063 2.855469-9.199219 3.445312-5.15625 5.238281-11.242187 5.144531-17.441406zm0 0"/><path d="m480 208c0-17.671875-14.328125-32-32-32h-20.449219c2.878907-4.84375 4.417969-10.367188 4.449219-16 0-17.671875-14.328125-32-32-32h-16c-17.671875 0-32 14.328125-32 32 .03125 5.632812 1.570312 11.15625 4.449219 16h-20.449219c-17.671875 0-32 14.328125-32 32 .03125 5.632812 1.570312 11.15625 4.449219 16h-43.417969c.144531-.144531.320312-.257812.464844-.398438l6.113281-6.097656c10.128906-11.503906 15.925781-26.183594 16.390625-41.503906v-8c0-4.417969-3.582031-8-8-8h-8c-15.320312.460938-30 6.261719-41.496094 16.398438l-6.113281 6.097656c-3.363281 3.480468-6.191406 7.441406-8.390625 11.75-2.199219-4.3125-5.03125-8.273438-8.398438-11.75l-6.105468-6.097656c-11.496094-10.136719-26.175782-15.9375-41.496094-16.398438h-8c-4.417969 0-8 3.582031-8 8v8c.464844 15.324219 6.265625 30.003906 16.398438 41.503906l6.105468 6.097656c.144532.140626.320313.253907.464844.398438h-78.96875c-48.578125.058594-87.9414062 39.421875-88 88v16c.03125 28.699219 14.066406 55.574219 37.601562 72h-5.601562c-17.671875 0-32 14.328125-32 32s14.328125 32 32 32h32c9.226562-.03125 17.980469-4.0625 24-11.054688 6.019531 6.992188 14.773438 11.023438 24 11.054688h32c17.671875 0 32-14.328125 32-32-.03125-5.632812-1.570312-11.15625-4.449219-16h220.449219c48.578125-.058594 87.941406-39.421875 88-88v-16c-.023438-28.691406-14.042969-55.566406-37.558594-72h5.558594c17.671875 0 32-14.328125 32-32zm-16 0c0 8.835938-7.164062 16-16 16h-32c-8.835938 0-16-7.164062-16-16s7.164062-16 16-16h32c8.835938 0 16 7.164062 16 16zm-80-64h16c8.835938 0 16 7.164062 16 16s-7.164062 16-16 16h-16c-8.835938 0-16-7.164062-16-16s7.164062-16 16-16zm-64 64c0-8.835938 7.164062-16 16-16h32c8.835938 0 16 7.164062 16 16s-7.164062 16-16 16h-32c-8.835938 0-16-7.164062-16-16zm-84.289062-14.183594 6.105468-6.105468c8.496094-7.121094 19.105469-11.238282 30.183594-11.710938-.472656 11.078125-4.589844 21.6875-11.710938 30.183594l-6.105468 6.105468c-4.652344 4.230469-10.214844 7.34375-16.253906 9.09375l15.726562-15.726562c3.03125-3.140625 2.988281-8.128906-.097656-11.214844-3.085938-3.085937-8.074219-3.128906-11.214844-.097656l-15.726562 15.726562c1.75-6.039062 4.863281-11.601562 9.09375-16.253906zm-75.710938-17.816406c11.078125.472656 21.6875 4.589844 30.183594 11.710938l6.105468 6.105468c4.230469 4.652344 7.34375 10.214844 9.09375 16.253906l-15.726562-15.726562c-3.140625-3.03125-8.128906-2.988281-11.214844.097656-3.085937 3.085938-3.128906 8.074219-.097656 11.214844l15.726562 15.726562c-6.039062-1.75-11.601562-4.863281-16.253906-9.09375l-6.105468-6.105468c-7.121094-8.496094-11.238282-19.105469-11.710938-30.183594zm-96 208c0-8.835938 7.164062-16 16-16h16c8.835938 0 16 7.164062 16 16s-7.164062 16-16 16h-8c-4.9375 0-9.863281-.507812-14.695312-1.519531-5.65625-2.605469-9.285157-8.253907-9.304688-14.480469zm0 64h-32c-8.835938 0-16-7.164062-16-16s7.164062-16 16-16h32c8.835938 0 16 7.164062 16 16s-7.164062 16-16 16zm96-16c0 8.835938-7.164062 16-16 16h-32c-8.835938 0-16-7.164062-16-16s7.164062-16 16-16h32c8.835938 0 16 7.164062 16 16zm304-120v16c-.042969 39.746094-32.253906 71.957031-72 72h-268.449219c2.878907-4.84375 4.417969-10.367188 4.449219-16 0-17.671875-14.328125-32-32-32h-16c-17.671875 0-32 14.328125-32 32 .050781 1.367188.1875 2.730469.414062 4.078125-20.214843-13.304687-32.394531-35.875-32.414062-60.078125v-16c.042969-39.746094 32.253906-71.957031 72-72h304c39.746094.042969 71.957031 32.253906 72 72zm0 0"/></svg>